<svg width="256" height="256" viewBox="0 0 256 256" fill="none" xmlns="http://www.w3.org/2000/svg">
  <rect width="256" height="256" rx="32" fill="#0B1020"/>
  <path d="M128 124c26.51 0 48-21.49 48-48S154.51 28 128 28 80 49.49 80 76s21.49 48 48 48Z" fill="#EAF0FF" fill-opacity="0.14"/>
  <path d="M44 228c10.86-41.02 44.38-68 84-68h0c39.62 0 73.14 26.98 84 68" stroke="#EAF0FF" stroke-opacity="0.22" stroke-width="18" stroke-linecap="round"/>
  <path d="M64 96c0-35.35 28.65-64 64-64s64 28.65 64 64" stroke="#22D3EE" stroke-opacity="0.22" stroke-width="10" stroke-linecap="round"/>
  <path d="M64 96c0-35.35 28.65-64 64-64s64 28.65 64 64" stroke="#7C5CFF" stroke-opacity="0.18" stroke-width="10" stroke-linecap="round" transform="rotate(14 128 96)"/>
</svg>

